<svg width="321" height="70" viewBox="0 0 321 70" fill="none" xmlns="http://www.w3.org/2000/svg">
<path d="M1.90605 45V39.1424L26.1734 14.4102L31.6591 16.4557H2.09201V10.1332H34.7274V15.9443L10.4136 40.7695L5.71816 38.6775H34.8668V45H1.90605ZM45.7536 37.6547V31.2392H69.928V37.6547H45.7536ZM63.0941 10.1332L79.4117 45H70.9972L56.7251 13.3409H59.3285L45.0563 45H36.6418L52.9594 10.1332H63.0941ZM132.118 10.1332V45H124.587V12.783L126.586 12.9225L111.709 45H103.574L88.6972 13.0155L90.6498 12.8295V45H83.165V10.1332H95.2987L109.338 41.1879H105.945L119.984 10.1332H132.118ZM157.876 45.6973C153.815 45.6973 150.251 44.938 147.183 43.4194C144.146 41.9007 141.775 39.7932 140.07 37.0969C138.366 34.3695 137.513 31.1927 137.513 27.5666C137.513 23.9404 138.366 20.7792 140.07 18.0828C141.775 15.3554 144.146 13.2324 147.183 11.7138C150.251 10.1952 153.815 9.43583 157.876 9.43583C161.936 9.43583 165.484 10.1952 168.522 11.7138C171.59 13.2324 173.976 15.3554 175.681 18.0828C177.385 20.7792 178.238 23.9404 178.238 27.5666C178.238 31.1927 177.385 34.3695 175.681 37.0969C173.976 39.7932 171.59 41.9007 168.522 43.4194C165.484 44.938 161.936 45.6973 157.876 45.6973ZM157.876 38.6775C160.417 38.6775 162.602 38.2281 164.431 37.3293C166.29 36.4305 167.716 35.1443 168.708 33.4707C169.73 31.7971 170.242 29.8291 170.242 27.5666C170.242 25.3041 169.73 23.3361 168.708 21.6625C167.716 19.9889 166.29 18.7027 164.431 17.8039C162.602 16.9051 160.417 16.4557 157.876 16.4557C155.365 16.4557 153.18 16.9051 151.321 17.8039C149.461 18.7027 148.02 19.9889 146.997 21.6625C146.005 23.3361 145.509 25.3041 145.509 27.5666C145.509 29.8291 146.005 31.7971 146.997 33.4707C148.02 35.1443 149.461 36.4305 151.321 37.3293C153.18 38.2281 155.365 38.6775 157.876 38.6775ZM183.68 45V10.1332H191.536V38.5845L189.305 37.0039L210.876 10.1332H219.29L190.792 45H183.68ZM200.323 27.9385L205.994 22.8712L219.802 45H210.783L200.323 27.9385Z" fill="#F90707"/>
<path d="M254.72 64.6681C248.862 64.6681 243.795 63.5523 239.518 61.3209C235.287 59.0429 232.01 55.8584 229.685 51.7673C227.361 47.6763 226.199 42.9112 226.199 37.4719C226.199 32.0327 227.361 27.2676 229.685 23.1765C232.01 19.0855 235.287 15.9242 239.518 13.6928C243.795 11.4148 248.862 10.2758 254.72 10.2758C260.531 10.2758 265.552 11.4148 269.782 13.6928C274.059 15.9242 277.36 19.0855 279.684 23.1765C282.009 27.2676 283.171 32.0327 283.171 37.4719C283.171 42.9112 282.009 47.6763 279.684 51.7673C277.36 55.8584 274.059 59.0429 269.782 61.3209C265.552 63.5523 260.531 64.6681 254.72 64.6681ZM254.72 55.0448C259.973 55.0448 264.041 53.5107 266.923 50.4424C269.852 47.3276 271.316 43.0042 271.316 37.4719C271.316 31.8933 269.852 27.5698 266.923 24.5015C264.041 21.4332 259.973 19.8991 254.72 19.8991C249.466 19.8991 245.375 21.4332 242.447 24.5015C239.518 27.5698 238.053 31.8933 238.053 37.4719C238.053 43.0506 239.518 47.3741 242.447 50.4424C245.375 53.5107 249.466 55.0448 254.72 55.0448ZM314.716 11.3218V63.6221H303.001V15.2269L308.859 20.5267L286.614 24.4318V15.2269L306 11.3218H314.716Z" fill="#F90707"/>
<path d="M5.6399 64.8213C5.3904 64.8213 5.11715 64.8153 4.82014 64.8035C4.535 64.7916 4.24393 64.7738 3.94692 64.75C3.66178 64.7262 3.37665 64.6965 3.09152 64.6609C2.80638 64.6253 2.54501 64.5777 2.3074 64.5183V52.5427C2.54501 52.4833 2.80638 52.4358 3.09152 52.4002C3.37665 52.3645 3.66178 52.3348 3.94692 52.3111C4.24393 52.2873 4.535 52.2695 4.82014 52.2576C5.10527 52.2457 5.37258 52.2398 5.62208 52.2398C6.33491 52.2398 7.00022 52.2932 7.61801 52.4002C8.24768 52.5071 8.78824 52.6912 9.2397 52.9526C9.70304 53.2021 10.0654 53.5348 10.3268 53.9506C10.5881 54.3664 10.7188 54.8773 10.7188 55.4832C10.7188 56.1604 10.5584 56.7187 10.2377 57.1583C9.91689 57.586 9.48919 57.9068 8.95457 58.1207C9.67928 58.3345 10.2555 58.6731 10.6832 59.1364C11.1109 59.5998 11.3247 60.2532 11.3247 61.0967C11.3247 62.3323 10.8673 63.2649 9.95254 63.8946C9.04961 64.5124 7.61207 64.8213 5.6399 64.8213ZM4.0182 58.9582V63.3065C4.14889 63.3184 4.30333 63.3303 4.48154 63.3422C4.63599 63.354 4.8142 63.3659 5.01617 63.3778C5.23002 63.3778 5.47357 63.3778 5.74682 63.3778C6.25768 63.3778 6.73885 63.3481 7.19031 63.2887C7.65365 63.2174 8.05759 63.0986 8.40212 62.9323C8.74666 62.7659 9.01991 62.5343 9.22188 62.2373C9.43573 61.9402 9.54266 61.566 9.54266 61.1145C9.54266 60.7106 9.46543 60.372 9.31099 60.0988C9.15654 59.8136 8.93081 59.5879 8.63379 59.4216C8.34866 59.2552 8.00413 59.1364 7.60019 59.0652C7.19625 58.9939 6.74479 58.9582 6.2458 58.9582H4.0182ZM4.0182 57.5682H5.83592C6.26362 57.5682 6.66756 57.5385 7.04774 57.4791C7.42792 57.4197 7.75463 57.3128 8.02789 57.1583C8.31302 57.0039 8.53281 56.8019 8.68726 56.5524C8.85358 56.3029 8.93675 55.9881 8.93675 55.6079C8.93675 55.2515 8.85358 54.9545 8.68726 54.7169C8.52093 54.4674 8.28926 54.2714 7.99224 54.1288C7.70711 53.9743 7.36852 53.8615 6.97646 53.7902C6.5844 53.7189 6.16858 53.6833 5.729 53.6833C5.28942 53.6833 4.94488 53.6892 4.69539 53.7011C4.4459 53.713 4.22017 53.7308 4.0182 53.7545V57.5682ZM19.194 64.7144C19.0633 64.453 18.903 64.1619 18.7129 63.8411C18.5228 63.5204 18.3149 63.1936 18.0891 62.861C17.8634 62.5165 17.6317 62.1779 17.3941 61.8452C17.1565 61.5125 16.9248 61.1977 16.6991 60.9007C16.4734 61.1977 16.2417 61.5185 16.0041 61.863C15.7665 62.1957 15.5348 62.5343 15.3091 62.8788C15.0952 63.2115 14.8933 63.5382 14.7032 63.859C14.5131 64.1797 14.3527 64.4649 14.222 64.7144H12.5112C12.927 63.9065 13.4201 63.0867 13.9903 62.2551C14.5725 61.4116 15.1487 60.6096 15.719 59.8493L12.6538 55.4475H14.525L16.7348 58.6909L18.9624 55.4475H20.7266L17.7327 59.7423C18.303 60.5146 18.8851 61.3343 19.4792 62.2016C20.0851 63.057 20.5959 63.8946 21.0117 64.7144H19.194ZM30.5505 60.0809C30.5505 60.8175 30.4436 61.4828 30.2297 62.0769C30.0159 62.6709 29.7129 63.1818 29.3208 63.6095C28.9407 64.0372 28.4833 64.3698 27.9486 64.6074C27.414 64.8332 26.8319 64.946 26.2022 64.946C25.5725 64.946 24.9904 64.8332 24.4558 64.6074C23.9211 64.3698 23.4578 64.0372 23.0657 63.6095C22.6856 63.1818 22.3885 62.6709 22.1747 62.0769C21.9608 61.4828 21.8539 60.8175 21.8539 60.0809C21.8539 59.3562 21.9608 58.6969 22.1747 58.1028C22.3885 57.4969 22.6856 56.9801 23.0657 56.5524C23.4578 56.1247 23.9211 55.798 24.4558 55.5723C24.9904 55.3347 25.5725 55.2159 26.2022 55.2159C26.8319 55.2159 27.414 55.3347 27.9486 55.5723C28.4833 55.798 28.9407 56.1247 29.3208 56.5524C29.7129 56.9801 30.0159 57.4969 30.2297 58.1028C30.4436 58.6969 30.5505 59.3562 30.5505 60.0809ZM28.8219 60.0809C28.8219 59.0355 28.5843 58.2098 28.109 57.6038C27.6457 56.9861 27.0101 56.6772 26.2022 56.6772C25.3943 56.6772 24.7528 56.9861 24.2776 57.6038C23.8142 58.2098 23.5825 59.0355 23.5825 60.0809C23.5825 61.1264 23.8142 61.9581 24.2776 62.5759C24.7528 63.1818 25.3943 63.4847 26.2022 63.4847C27.0101 63.4847 27.6457 63.1818 28.109 62.5759C28.5843 61.9581 28.8219 61.1264 28.8219 60.0809ZM31.7417 63.36H32.7397C33.1317 62.7897 33.4406 62.2016 33.6663 61.5957C33.904 60.9898 34.0822 60.3661 34.201 59.7245C34.3198 59.0711 34.397 58.3939 34.4326 57.693C34.4683 56.9801 34.492 56.2316 34.5039 55.4475H40.5808V63.36H41.8283V67.2984H40.26V64.7144H33.3099V67.2984H31.7417V63.36ZM38.9235 63.36V56.8376H36.0187C36.0068 57.3959 35.9771 57.9603 35.9296 58.5305C35.8821 59.0889 35.8048 59.6473 35.6979 60.2057C35.591 60.7522 35.4365 61.2928 35.2346 61.8274C35.0445 62.3501 34.8009 62.861 34.5039 63.36H38.9235ZM51.4077 55.4475V64.7144H49.8038V57.6573C49.4474 58.1088 49.0553 58.6375 48.6276 59.2434C48.1999 59.8493 47.7722 60.4789 47.3445 61.1324C46.9168 61.7739 46.5069 62.4095 46.1149 63.0392C45.7228 63.6689 45.3842 64.2273 45.0991 64.7144H43.62V55.4475H45.2238V62.1125C45.5327 61.6017 45.8832 61.0433 46.2753 60.4374C46.6673 59.8196 47.0713 59.2137 47.4871 58.6196C47.9148 58.0137 48.3365 57.4375 48.7524 56.891C49.1801 56.3326 49.5781 55.8515 49.9464 55.4475H51.4077ZM60.7935 55.4475V56.8376H57.7818V64.7144H56.1245V56.8376H53.1128V55.4475H60.7935ZM68.2486 63.4669C68.3199 63.4788 68.4209 63.4907 68.5516 63.5025C68.6823 63.5144 68.8308 63.5263 68.9971 63.5382C69.1634 63.5382 69.3357 63.5441 69.5139 63.556C69.704 63.556 69.8822 63.556 70.0485 63.556C70.3931 63.556 70.7198 63.5322 71.0287 63.4847C71.3494 63.4372 71.6227 63.354 71.8484 63.2352C72.086 63.1164 72.2702 62.962 72.4009 62.7719C72.5434 62.5699 72.6147 62.3145 72.6147 62.0056C72.6147 61.7086 72.5494 61.465 72.4187 61.2749C72.2999 61.073 72.1336 60.9126 71.9197 60.7938C71.7059 60.675 71.4504 60.5918 71.1534 60.5443C70.8683 60.4968 70.5594 60.473 70.2267 60.473H68.2486V63.4669ZM70.0129 59.2434C70.3337 59.2434 70.6247 59.2255 70.8861 59.1899C71.1594 59.1424 71.391 59.0652 71.5811 58.9582C71.7831 58.8513 71.9375 58.7087 72.0445 58.5305C72.1633 58.3523 72.2227 58.1266 72.2227 57.8533C72.2227 57.5682 72.1514 57.3425 72.0088 57.1761C71.8663 57.0098 71.6762 56.8851 71.4386 56.8019C71.2128 56.7069 70.9514 56.6475 70.6544 56.6237C70.3693 56.5881 70.0782 56.5702 69.7812 56.5702C69.508 56.5702 69.2288 56.5762 68.9436 56.5881C68.6704 56.5999 68.4387 56.6118 68.2486 56.6237V59.2434H70.0129ZM69.9772 64.8747C69.2763 64.8747 68.6288 64.8391 68.0348 64.7678C67.4407 64.7084 66.9715 64.6371 66.6269 64.554V55.5366C66.9715 55.4535 67.4407 55.3822 68.0348 55.3228C68.6288 55.2515 69.2763 55.2159 69.9772 55.2159C70.4643 55.2159 70.9396 55.2574 71.4029 55.3406C71.8663 55.4238 72.2761 55.5663 72.6325 55.7683C72.989 55.9584 73.2741 56.2257 73.4879 56.5702C73.7137 56.9029 73.8265 57.3187 73.8265 57.8177C73.8265 58.2692 73.7137 58.6553 73.4879 58.976C73.2622 59.2968 72.9593 59.5463 72.5791 59.7245C73.0899 59.9027 73.4939 60.17 73.7909 60.5265C74.0998 60.871 74.2542 61.3581 74.2542 61.9878C74.2542 62.5462 74.1414 63.0095 73.9156 63.3778C73.7018 63.7461 73.3988 64.0431 73.0068 64.2688C72.6266 64.4946 72.1751 64.649 71.6524 64.7322C71.1297 64.8272 70.5713 64.8747 69.9772 64.8747ZM84.5421 64.9282C83.7937 64.9282 83.1343 64.8094 82.564 64.5718C82.0056 64.3342 81.5304 64.0015 81.1384 63.5738C80.7582 63.1461 80.4731 62.6412 80.283 62.0591C80.0929 61.465 79.9978 60.8116 79.9978 60.0988C79.9978 59.3859 80.0988 58.7325 80.3008 58.1385C80.5146 57.5444 80.8117 57.0336 81.1918 56.6059C81.572 56.1663 82.0354 55.8277 82.5819 55.5901C83.1402 55.3406 83.758 55.2159 84.4352 55.2159C84.851 55.2159 85.2669 55.2515 85.6827 55.3228C86.0985 55.3941 86.4965 55.5069 86.8767 55.6614L86.5024 57.0692C86.2529 56.9504 85.9619 56.8554 85.6292 56.7841C85.3084 56.7128 84.9639 56.6772 84.5956 56.6772C83.6689 56.6772 82.9561 56.9682 82.4571 57.5504C81.97 58.1325 81.7265 58.982 81.7265 60.0988C81.7265 60.5977 81.7799 61.0551 81.8868 61.471C82.0056 61.8868 82.1839 62.2432 82.4215 62.5402C82.671 62.8372 82.9858 63.0689 83.366 63.2352C83.7461 63.3897 84.2095 63.4669 84.756 63.4669C85.1956 63.4669 85.5936 63.4253 85.95 63.3422C86.3064 63.259 86.5856 63.1699 86.7876 63.0748L87.0192 64.4649C86.9242 64.5243 86.7876 64.5837 86.6094 64.6431C86.4312 64.6906 86.2292 64.7322 86.0035 64.7678C85.7777 64.8153 85.5342 64.851 85.2728 64.8747C85.0233 64.9104 84.7798 64.9282 84.5421 64.9282ZM96.7521 60.0809C96.7521 60.8175 96.6451 61.4828 96.4313 62.0769C96.2174 62.6709 95.9145 63.1818 95.5224 63.6095C95.1422 64.0372 94.6848 64.3698 94.1502 64.6074C93.6156 64.8332 93.0334 64.946 92.4038 64.946C91.7741 64.946 91.192 64.8332 90.6573 64.6074C90.1227 64.3698 89.6594 64.0372 89.2673 63.6095C88.8871 63.1818 88.5901 62.6709 88.3763 62.0769C88.1624 61.4828 88.0555 60.8175 88.0555 60.0809C88.0555 59.3562 88.1624 58.6969 88.3763 58.1028C88.5901 57.4969 88.8871 56.9801 89.2673 56.5524C89.6594 56.1247 90.1227 55.798 90.6573 55.5723C91.192 55.3347 91.7741 55.2159 92.4038 55.2159C93.0334 55.2159 93.6156 55.3347 94.1502 55.5723C94.6848 55.798 95.1422 56.1247 95.5224 56.5524C95.9145 56.9801 96.2174 57.4969 96.4313 58.1028C96.6451 58.6969 96.7521 59.3562 96.7521 60.0809ZM95.0234 60.0809C95.0234 59.0355 94.7858 58.2098 94.3106 57.6038C93.8473 56.9861 93.2117 56.6772 92.4038 56.6772C91.5959 56.6772 90.9544 56.9861 90.4791 57.6038C90.0158 58.2098 89.7841 59.0355 89.7841 60.0809C89.7841 61.1264 90.0158 61.9581 90.4791 62.5759C90.9544 63.1818 91.5959 63.4847 92.4038 63.4847C93.2117 63.4847 93.8473 63.1818 94.3106 62.5759C94.7858 61.9581 95.0234 61.1264 95.0234 60.0809ZM103.111 64.9282C102.363 64.9282 101.703 64.8094 101.133 64.5718C100.575 64.3342 100.1 64.0015 99.7075 63.5738C99.3274 63.1461 99.0422 62.6412 98.8521 62.0591C98.662 61.465 98.567 60.8116 98.567 60.0988C98.567 59.3859 98.668 58.7325 98.87 58.1385C99.0838 57.5444 99.3808 57.0336 99.761 56.6059C100.141 56.1663 100.605 55.8277 101.151 55.5901C101.709 55.3406 102.327 55.2159 103.004 55.2159C103.42 55.2159 103.836 55.2515 104.252 55.3228C104.668 55.3941 105.066 55.5069 105.446 55.6614L105.072 57.0692C104.822 56.9504 104.531 56.8554 104.198 56.7841C103.878 56.7128 103.533 56.6772 103.165 56.6772C102.238 56.6772 101.525 56.9682 101.026 57.5504C100.539 58.1325 100.296 58.982 100.296 60.0988C100.296 60.5977 100.349 61.0551 100.456 61.471C100.575 61.8868 100.753 62.2432 100.991 62.5402C101.24 62.8372 101.555 63.0689 101.935 63.2352C102.315 63.3897 102.779 63.4669 103.325 63.4669C103.765 63.4669 104.163 63.4253 104.519 63.3422C104.876 63.259 105.155 63.1699 105.357 63.0748L105.588 64.4649C105.493 64.5243 105.357 64.5837 105.179 64.6431C105 64.6906 104.798 64.7322 104.573 64.7678C104.347 64.8153 104.103 64.851 103.842 64.8747C103.592 64.9104 103.349 64.9282 103.111 64.9282ZM114.169 55.4475V56.8376H111.157V64.7144H109.5V56.8376H106.488V55.4475H114.169ZM119.014 63.5204C119.406 63.5204 119.751 63.5144 120.048 63.5025C120.357 63.4788 120.612 63.4431 120.814 63.3956V60.6334C120.695 60.574 120.499 60.5265 120.226 60.4908C119.965 60.4433 119.644 60.4195 119.264 60.4195C119.014 60.4195 118.747 60.4374 118.462 60.473C118.189 60.5086 117.933 60.5859 117.696 60.7047C117.47 60.8116 117.28 60.966 117.125 61.168C116.971 61.3581 116.894 61.6135 116.894 61.9343C116.894 62.5283 117.084 62.9442 117.464 63.1818C117.844 63.4075 118.361 63.5204 119.014 63.5204ZM118.872 55.2159C119.537 55.2159 120.095 55.305 120.547 55.4832C121.01 55.6495 121.379 55.893 121.652 56.2138C121.937 56.5227 122.139 56.897 122.258 57.3365C122.376 57.7642 122.436 58.2395 122.436 58.7622V64.554C122.293 64.5777 122.091 64.6134 121.83 64.6609C121.581 64.6965 121.295 64.7322 120.975 64.7678C120.654 64.8035 120.303 64.8332 119.923 64.8569C119.555 64.8926 119.187 64.9104 118.818 64.9104C118.296 64.9104 117.814 64.8569 117.375 64.75C116.935 64.6431 116.555 64.4767 116.234 64.251C115.913 64.0134 115.664 63.7045 115.486 63.3243C115.308 62.9442 115.218 62.4868 115.218 61.9521C115.218 61.4413 115.319 61.0017 115.521 60.6334C115.735 60.2651 116.02 59.9681 116.377 59.7423C116.733 59.5166 117.149 59.3503 117.624 59.2434C118.1 59.1364 118.598 59.083 119.121 59.083C119.288 59.083 119.46 59.0949 119.638 59.1186C119.816 59.1305 119.983 59.1543 120.137 59.1899C120.303 59.2137 120.446 59.2374 120.565 59.2612C120.684 59.2849 120.767 59.3028 120.814 59.3146V58.8513C120.814 58.5781 120.785 58.3107 120.725 58.0494C120.666 57.7761 120.559 57.5385 120.404 57.3365C120.25 57.1227 120.036 56.9564 119.763 56.8376C119.501 56.7069 119.157 56.6415 118.729 56.6415C118.183 56.6415 117.702 56.6831 117.286 56.7663C116.882 56.8376 116.579 56.9148 116.377 56.9979L116.181 55.6257C116.395 55.5307 116.751 55.4416 117.25 55.3584C117.749 55.2634 118.29 55.2159 118.872 55.2159ZM126.81 63.4669C126.881 63.4788 126.982 63.4907 127.113 63.5025C127.244 63.5144 127.392 63.5263 127.559 63.5382C127.725 63.5382 127.897 63.5441 128.075 63.556C128.266 63.556 128.444 63.556 128.61 63.556C128.955 63.556 129.281 63.5322 129.59 63.4847C129.911 63.4372 130.184 63.354 130.41 63.2352C130.648 63.1164 130.832 62.962 130.962 62.7719C131.105 62.5699 131.176 62.3145 131.176 62.0056C131.176 61.7086 131.111 61.465 130.98 61.2749C130.861 61.073 130.695 60.9126 130.481 60.7938C130.267 60.675 130.012 60.5918 129.715 60.5443C129.43 60.4968 129.121 60.473 128.788 60.473H126.81V63.4669ZM128.574 59.2434C128.895 59.2434 129.186 59.2255 129.448 59.1899C129.721 59.1424 129.953 59.0652 130.143 58.9582C130.345 58.8513 130.499 58.7087 130.606 58.5305C130.725 58.3523 130.784 58.1266 130.784 57.8533C130.784 57.5682 130.713 57.3425 130.57 57.1761C130.428 57.0098 130.238 56.8851 130 56.8019C129.774 56.7069 129.513 56.6475 129.216 56.6237C128.931 56.5881 128.64 56.5702 128.343 56.5702C128.07 56.5702 127.79 56.5762 127.505 56.5881C127.232 56.5999 127 56.6118 126.81 56.6237V59.2434H128.574ZM128.539 64.8747C127.838 64.8747 127.19 64.8391 126.596 64.7678C126.002 64.7084 125.533 64.6371 125.189 64.554V55.5366C125.533 55.4535 126.002 55.3822 126.596 55.3228C127.19 55.2515 127.838 55.2159 128.539 55.2159C129.026 55.2159 129.501 55.2574 129.965 55.3406C130.428 55.4238 130.838 55.5663 131.194 55.7683C131.551 55.9584 131.836 56.2257 132.05 56.5702C132.275 56.9029 132.388 57.3187 132.388 57.8177C132.388 58.2692 132.275 58.6553 132.05 58.976C131.824 59.2968 131.521 59.5463 131.141 59.7245C131.652 59.9027 132.055 60.17 132.352 60.5265C132.661 60.871 132.816 61.3581 132.816 61.9878C132.816 62.5462 132.703 63.0095 132.477 63.3778C132.263 63.7461 131.96 64.0431 131.568 64.2688C131.188 64.4946 130.737 64.649 130.214 64.7322C129.691 64.8272 129.133 64.8747 128.539 64.8747ZM147.434 64.7144C147.232 64.1797 147.042 63.657 146.864 63.1461C146.686 62.6234 146.502 62.0947 146.311 61.5601H140.716L139.593 64.7144H137.793C138.268 63.4075 138.714 62.2016 139.13 61.0967C139.546 59.98 139.949 58.9226 140.342 57.9246C140.745 56.9267 141.143 55.9762 141.536 55.0733C141.928 54.1585 142.337 53.2556 142.765 52.3645H144.351C144.779 53.2556 145.189 54.1585 145.581 55.0733C145.973 55.9762 146.365 56.9267 146.757 57.9246C147.161 58.9226 147.571 59.98 147.987 61.0967C148.402 62.2016 148.848 63.4075 149.323 64.7144H147.434ZM145.813 60.1344C145.432 59.1008 145.052 58.1028 144.672 57.1405C144.304 56.1663 143.918 55.2337 143.514 54.3426C143.098 55.2337 142.7 56.1663 142.32 57.1405C141.951 58.1028 141.583 59.1008 141.215 60.1344H145.813ZM155.98 64.9817C155.113 64.9817 154.323 64.8391 153.61 64.554C152.897 64.2688 152.285 63.853 151.774 63.3065C151.263 62.76 150.865 62.0888 150.58 61.2928C150.307 60.4849 150.17 59.5641 150.17 58.5305C150.17 57.4969 150.325 56.5821 150.634 55.7861C150.954 54.9782 151.382 54.3011 151.917 53.7545C152.451 53.208 153.075 52.7922 153.788 52.5071C154.501 52.222 155.261 52.0794 156.069 52.0794C156.58 52.0794 157.037 52.115 157.441 52.1863C157.857 52.2576 158.213 52.3408 158.51 52.4358C158.819 52.5309 159.069 52.6259 159.259 52.7209C159.449 52.816 159.58 52.8873 159.651 52.9348L159.152 54.3605C159.045 54.2892 158.891 54.2119 158.689 54.1288C158.487 54.0456 158.255 53.9625 157.994 53.8793C157.744 53.7961 157.465 53.7308 157.156 53.6833C156.859 53.6239 156.556 53.5942 156.247 53.5942C155.594 53.5942 155.006 53.707 154.483 53.9328C153.96 54.1585 153.515 54.4852 153.146 54.9129C152.778 55.3406 152.493 55.8633 152.291 56.4811C152.101 57.087 152.006 57.7702 152.006 58.5305C152.006 59.2671 152.089 59.9384 152.255 60.5443C152.433 61.1502 152.695 61.6729 153.039 62.1125C153.384 62.5402 153.812 62.8729 154.323 63.1105C154.845 63.3481 155.451 63.4669 156.14 63.4669C156.936 63.4669 157.596 63.3837 158.118 63.2174C158.641 63.0511 159.033 62.9026 159.295 62.7719L159.74 64.1976C159.657 64.257 159.508 64.3342 159.295 64.4292C159.081 64.5124 158.813 64.5955 158.493 64.6787C158.172 64.7619 157.798 64.8332 157.37 64.8926C156.942 64.952 156.479 64.9817 155.98 64.9817ZM166.683 64.9817C165.816 64.9817 165.025 64.8391 164.313 64.554C163.6 64.2688 162.988 63.853 162.477 63.3065C161.966 62.76 161.568 62.0888 161.283 61.2928C161.01 60.4849 160.873 59.5641 160.873 58.5305C160.873 57.4969 161.028 56.5821 161.337 55.7861C161.657 54.9782 162.085 54.3011 162.62 53.7545C163.154 53.208 163.778 52.7922 164.491 52.5071C165.204 52.222 165.964 52.0794 166.772 52.0794C167.283 52.0794 167.74 52.115 168.144 52.1863C168.56 52.2576 168.916 52.3408 169.213 52.4358C169.522 52.5309 169.772 52.6259 169.962 52.7209C170.152 52.816 170.283 52.8873 170.354 52.9348L169.855 54.3605C169.748 54.2892 169.594 54.2119 169.392 54.1288C169.19 54.0456 168.958 53.9625 168.697 53.8793C168.447 53.7961 168.168 53.7308 167.859 53.6833C167.562 53.6239 167.259 53.5942 166.95 53.5942C166.297 53.5942 165.709 53.707 165.186 53.9328C164.663 54.1585 164.218 54.4852 163.849 54.9129C163.481 55.3406 163.196 55.8633 162.994 56.4811C162.804 57.087 162.709 57.7702 162.709 58.5305C162.709 59.2671 162.792 59.9384 162.958 60.5443C163.136 61.1502 163.398 61.6729 163.742 62.1125C164.087 62.5402 164.515 62.8729 165.025 63.1105C165.548 63.3481 166.154 63.4669 166.843 63.4669C167.639 63.4669 168.299 63.3837 168.821 63.2174C169.344 63.0511 169.736 62.9026 169.997 62.7719L170.443 64.1976C170.36 64.257 170.211 64.3342 169.997 64.4292C169.784 64.5124 169.516 64.5955 169.196 64.6787C168.875 64.7619 168.501 64.8332 168.073 64.8926C167.645 64.952 167.182 64.9817 166.683 64.9817ZM171.576 58.5305C171.576 57.4732 171.731 56.5405 172.039 55.7327C172.36 54.9248 172.788 54.2535 173.323 53.7189C173.869 53.1724 174.499 52.7625 175.212 52.4893C175.936 52.216 176.703 52.0794 177.51 52.0794C178.306 52.0794 179.055 52.216 179.756 52.4893C180.469 52.7625 181.092 53.1724 181.627 53.7189C182.162 54.2535 182.583 54.9248 182.892 55.7327C183.213 56.5405 183.374 57.4732 183.374 58.5305C183.374 59.5879 183.213 60.5205 182.892 61.3284C182.583 62.1363 182.162 62.8135 181.627 63.36C181.092 63.8946 180.469 64.2985 179.756 64.5718C179.055 64.845 178.306 64.9817 177.51 64.9817C176.703 64.9817 175.936 64.845 175.212 64.5718C174.499 64.2985 173.869 63.8946 173.323 63.36C172.788 62.8135 172.36 62.1363 172.039 61.3284C171.731 60.5205 171.576 59.5879 171.576 58.5305ZM173.394 58.5305C173.394 59.279 173.489 59.9621 173.679 60.5799C173.869 61.1858 174.136 61.7026 174.481 62.1303C174.837 62.558 175.265 62.8907 175.764 63.1283C176.275 63.354 176.845 63.4669 177.475 63.4669C178.104 63.4669 178.669 63.354 179.168 63.1283C179.667 62.8907 180.089 62.558 180.433 62.1303C180.79 61.7026 181.063 61.1858 181.253 60.5799C181.443 59.9621 181.538 59.279 181.538 58.5305C181.538 57.7821 181.443 57.1049 181.253 56.499C181.063 55.8812 180.79 55.3584 180.433 54.9307C180.089 54.503 179.667 54.1763 179.168 53.9506C178.669 53.713 178.104 53.5942 177.475 53.5942C176.845 53.5942 176.275 53.713 175.764 53.9506C175.265 54.1763 174.837 54.503 174.481 54.9307C174.136 55.3584 173.869 55.8812 173.679 56.499C173.489 57.1049 173.394 57.7821 173.394 58.5305ZM191.256 64.9817C190.389 64.9817 189.599 64.8391 188.886 64.554C188.173 64.2688 187.561 63.853 187.05 63.3065C186.539 62.76 186.141 62.0888 185.856 61.2928C185.583 60.4849 185.446 59.5641 185.446 58.5305C185.446 57.4969 185.601 56.5821 185.91 55.7861C186.231 54.9782 186.658 54.3011 187.193 53.7545C187.727 53.208 188.351 52.7922 189.064 52.5071C189.777 52.222 190.537 52.0794 191.345 52.0794C191.856 52.0794 192.313 52.115 192.717 52.1863C193.133 52.2576 193.49 52.3408 193.787 52.4358C194.095 52.5309 194.345 52.6259 194.535 52.7209C194.725 52.816 194.856 52.8873 194.927 52.9348L194.428 54.3605C194.321 54.2892 194.167 54.2119 193.965 54.1288C193.763 54.0456 193.531 53.9625 193.27 53.8793C193.02 53.7961 192.741 53.7308 192.432 53.6833C192.135 53.6239 191.832 53.5942 191.523 53.5942C190.87 53.5942 190.282 53.707 189.759 53.9328C189.236 54.1585 188.791 54.4852 188.423 54.9129C188.054 55.3406 187.769 55.8633 187.567 56.4811C187.377 57.087 187.282 57.7702 187.282 58.5305C187.282 59.2671 187.365 59.9384 187.531 60.5443C187.71 61.1502 187.971 61.6729 188.316 62.1125C188.66 62.5402 189.088 62.8729 189.599 63.1105C190.121 63.3481 190.727 63.4669 191.416 63.4669C192.212 63.4669 192.872 63.3837 193.395 63.2174C193.917 63.0511 194.309 62.9026 194.571 62.7719L195.016 64.1976C194.933 64.257 194.785 64.3342 194.571 64.4292C194.357 64.5124 194.09 64.5955 193.769 64.6787C193.448 64.7619 193.074 64.8332 192.646 64.8926C192.218 64.952 191.755 64.9817 191.256 64.9817ZM196.149 58.5305C196.149 57.4732 196.304 56.5405 196.613 55.7327C196.933 54.9248 197.361 54.2535 197.896 53.7189C198.442 53.1724 199.072 52.7625 199.785 52.4893C200.51 52.216 201.276 52.0794 202.084 52.0794C202.88 52.0794 203.628 52.216 204.329 52.4893C205.042 52.7625 205.666 53.1724 206.2 53.7189C206.735 54.2535 207.157 54.9248 207.466 55.7327C207.786 56.5405 207.947 57.4732 207.947 58.5305C207.947 59.5879 207.786 60.5205 207.466 61.3284C207.157 62.1363 206.735 62.8135 206.2 63.36C205.666 63.8946 205.042 64.2985 204.329 64.5718C203.628 64.845 202.88 64.9817 202.084 64.9817C201.276 64.9817 200.51 64.845 199.785 64.5718C199.072 64.2985 198.442 63.8946 197.896 63.36C197.361 62.8135 196.933 62.1363 196.613 61.3284C196.304 60.5205 196.149 59.5879 196.149 58.5305ZM197.967 58.5305C197.967 59.279 198.062 59.9621 198.252 60.5799C198.442 61.1858 198.71 61.7026 199.054 62.1303C199.411 62.558 199.838 62.8907 200.337 63.1283C200.848 63.354 201.418 63.4669 202.048 63.4669C202.678 63.4669 203.242 63.354 203.741 63.1283C204.24 62.8907 204.662 62.558 205.006 62.1303C205.363 61.7026 205.636 61.1858 205.826 60.5799C206.016 59.9621 206.111 59.279 206.111 58.5305C206.111 57.7821 206.016 57.1049 205.826 56.499C205.636 55.8812 205.363 55.3584 205.006 54.9307C204.662 54.503 204.24 54.1763 203.741 53.9506C203.242 53.713 202.678 53.5942 202.048 53.5942C201.418 53.5942 200.848 53.713 200.337 53.9506C199.838 54.1763 199.411 54.503 199.054 54.9307C198.71 55.3584 198.442 55.8812 198.252 56.499C198.062 57.1049 197.967 57.7821 197.967 58.5305ZM210.528 64.7144V68.0112H208.888V63.2352H210.189C210.795 62.5462 211.259 61.7858 211.579 60.9542C211.912 60.1106 212.15 59.2255 212.292 58.2989C212.447 57.3603 212.536 56.392 212.559 55.3941C212.595 54.3961 212.619 53.3863 212.631 52.3645H219.616V63.2352H221.167V68.0112H219.527V64.7144H210.528ZM214.324 53.8437C214.288 54.6278 214.246 55.4297 214.199 56.2495C214.163 57.0573 214.074 57.8652 213.932 58.6731C213.801 59.4691 213.605 60.2532 213.344 61.0254C213.082 61.7977 212.714 62.5343 212.239 63.2352H217.888V53.8437H214.324Z" fill="white"/>
</svg>
