<svg width="18" height="68" viewBox="0 0 18 68" fill="none" xmlns="http://www.w3.org/2000/svg">
<path d="M16.608 17.184C16.608 22.368 16.416 27.2 16.032 31.68C15.648 36.16 15.136 40.704 14.496 45.312H3.552C2.912 40.704 2.368 36.16 1.92 31.68C1.536 27.2 1.344 22.368 1.344 17.184V0H16.608V17.184ZM17.856 58.944C17.856 61.76 16.928 63.936 15.072 65.472C13.28 67.008 11.232 67.776 8.928 67.776C6.624 67.776 4.544 67.008 2.688 65.472C0.896 63.936 0 61.76 0 58.944C0 56.128 0.896 53.952 2.688 52.416C4.544 50.88 6.624 50.112 8.928 50.112C11.232 50.112 13.28 50.88 15.072 52.416C16.928 53.952 17.856 56.128 17.856 58.944Z" fill="#F90707"/>
</svg>
