<svg width="80" height="60" viewBox="-15 0 80 60" fill="none" xmlns="http://www.w3.org/2000/svg">
<path d="M1.19994 59.88C0.799942 59.88 0.599942 59.68 0.599942 59.28C0.599942 59.08 0.639942 58.96 0.719941 58.92L21.5399 36.24L0.359942 30C0.119942 29.92 -5.84275e-05 29.74 -5.84275e-05 29.46C-5.84275e-05 29.18 0.0799416 29.02 0.239942 28.98L47.5799 0.0600078C47.6599 0.0200083 47.7599 8.58307e-06 47.8799 8.58307e-06C47.9999 8.58307e-06 48.1199 0.0400081 48.2399 0.120007C48.3999 0.200008 48.4799 0.340009 48.4799 0.540009C48.4799 0.700009 48.4199 0.840008 48.2999 0.960007L27.5399 23.58L48.7799 28.92C49.0599 29 49.1999 29.14 49.1999 29.34C49.1999 29.62 49.0999 29.82 48.8999 29.94L1.49994 59.76C1.41994 59.84 1.31994 59.88 1.19994 59.88Z" fill="#F90707"/>
</svg>
