<svg width="80" height="42" viewBox="-0.5 0 80 42" fill="none" xmlns="http://www.w3.org/2000/svg">
<path d="M21.1479 32.3873C23.8099 32.3873 26.2254 31.5493 28.3944 29.8732C30.5634 28.0986 32.6338 25.1408 34.6056 21C32.6338 16.8592 30.5634 13.9507 28.3944 12.2746C26.2254 10.5 23.8099 9.61268 21.1479 9.61268C18.3873 9.61268 15.9225 10.5986 13.7535 12.5704C11.6831 14.4437 10.6479 17.2535 10.6479 21C10.6479 24.7465 11.6831 27.6056 13.7535 29.5775C15.9225 31.4507 18.3873 32.3873 21.1479 32.3873ZM39.0423 30.6127C38.1549 31.993 37.1197 33.3732 35.9366 34.7535C34.7535 36.0352 33.3732 37.2183 31.7958 38.3028C30.2183 39.3873 28.493 40.2747 26.6197 40.9648C24.7465 41.6549 22.7254 42 20.5563 42C18.6831 42 16.5634 41.7042 14.1972 41.1127C11.831 40.4225 9.56338 39.2887 7.39437 37.7113C5.32394 36.0352 3.5493 33.8662 2.07042 31.2042C0.690141 28.4437 0 25.0423 0 21C0 16.9577 0.690141 13.6056 2.07042 10.9437C3.5493 8.1831 5.32394 6.01408 7.39437 4.43662C9.56338 2.76056 11.831 1.62676 14.1972 1.03521C16.5634 0.34507 18.6831 0 20.5563 0C22.7254 0 24.7465 0.34507 26.6197 1.03521C28.493 1.72535 30.2183 2.61268 31.7958 3.69718C33.3732 4.78169 34.7535 6.01409 35.9366 7.39437C37.1197 8.77465 38.1549 10.1056 39.0423 11.3873C39.9296 10.1056 40.9648 8.77465 42.1479 7.39437C43.331 6.01409 44.7113 4.78169 46.2887 3.69718C47.8662 2.61268 49.5916 1.72535 51.4648 1.03521C53.338 0.34507 55.3592 0 57.5282 0C59.4014 0 61.5211 0.34507 63.8873 1.03521C66.2535 1.62676 68.4718 2.76056 70.5423 4.43662C72.7113 6.01408 74.4859 8.1831 75.8662 10.9437C77.3451 13.6056 78.0845 16.9577 78.0845 21C78.0845 25.0423 77.3451 28.4437 75.8662 31.2042C74.4859 33.8662 72.7113 36.0352 70.5423 37.7113C68.4718 39.2887 66.2535 40.4225 63.8873 41.1127C61.5211 41.7042 59.4014 42 57.5282 42C55.3592 42 53.338 41.6549 51.4648 40.9648C49.5916 40.2747 47.8662 39.3873 46.2887 38.3028C44.7113 37.2183 43.331 36.0352 42.1479 34.7535C40.9648 33.3732 39.9296 31.993 39.0423 30.6127ZM56.9366 32.3873C59.6972 32.3873 62.1127 31.4507 64.1831 29.5775C66.3521 27.6056 67.4366 24.7465 67.4366 21C67.4366 17.2535 66.3521 14.4437 64.1831 12.5704C62.1127 10.5986 59.6972 9.61268 56.9366 9.61268C54.2746 9.61268 51.8592 10.5 49.6901 12.2746C47.5211 13.9507 45.4507 16.8592 43.4789 21C45.4507 25.1408 47.5211 28.0986 49.6901 29.8732C51.8592 31.5493 54.2746 32.3873 56.9366 32.3873Z" fill="#F90707"/>
</svg>
