<svg width="86" height="61" viewBox="0 0 86 61" fill="none" xmlns="http://www.w3.org/2000/svg">
<path d="M0 41.4C0 33.5333 1.4 26.0667 4.2 19C7 11.9333 11.3333 5.6 17.2 0L27.4 1.6L24.4 25C28.6667 25 31.9333 26.0667 34.2 28.2C36.4667 30.3333 37.6 34.7333 37.6 41.4C37.6 47 37 51.1333 35.8 53.8C34.7333 56.4667 32.7333 58.2 29.8 59C26.8667 59.8 22.6 60.2 17 60.2C12.4667 60.2 8.93333 59.8 6.4 59C4 58.2 2.33333 56.4667 1.4 53.8C0.466667 51.1333 0 47 0 41.4ZM47.6 41.4C47.6 33.5333 49 26.0667 51.8 19C54.6 11.9333 58.9333 5.6 64.8 0L75 1.6L72 25C76.2667 25 79.5333 26.0667 81.8 28.2C84.0667 30.3333 85.2 34.7333 85.2 41.4C85.2 47 84.6 51.1333 83.4 53.8C82.3333 56.4667 80.3333 58.2 77.4 59C74.4667 59.8 70.2 60.2 64.6 60.2C60.0667 60.2 56.5333 59.8 54 59C51.6 58.2 49.9333 56.4667 49 53.8C48.0667 51.1333 47.6 47 47.6 41.4Z" fill="#F5F4F9"/>
</svg>
