<svg width="32" height="32" viewBox="0 0 32 32" fill="none" xmlns="http://www.w3.org/2000/svg">
<rect width="32" height="32" rx="16" fill="#419FD9"/>
<path d="M22.6788 8.12656C22.6788 8.12656 24.0303 7.5206 24.0538 8.52207L21.0948 23.3873C21.0875 23.405 20.6652 24.4074 19.5568 23.9225L15.3634 20.7076L12.6603 23.1539C12.6546 23.1583 12.4476 23.316 12.2179 23.2242C12.2179 23.2242 12.0085 23.2001 11.7755 22.4313C11.519 21.6384 10.2609 17.5152 10.2609 17.5152L6.08997 16.1178C6.07584 16.1125 5.46082 15.8788 5.39172 15.3951C5.32268 14.9095 6.10219 14.6305 6.1134 14.6266L22.6788 8.12656ZM20.838 11.1549C20.8608 10.8095 20.2916 11.1476 20.2794 11.1549L11.1232 16.9801C10.9834 17.0732 10.937 17.2358 10.9835 17.3756L12.0782 20.9635C12.1481 21.1731 12.4504 21.1503 12.4972 20.9176L12.754 18.7271C12.7541 18.634 12.8004 18.5638 12.8702 18.5172C13.7562 17.7245 20.3495 11.8075 20.629 11.5279C20.9318 11.2019 20.838 11.1549 20.838 11.1549Z" fill="white"/>
</svg>
