<svg width="32" height="32" viewBox="0 0 32 32" fill="none" xmlns="http://www.w3.org/2000/svg">
<rect width="32" height="32" rx="16" fill="#5181B8"/>
<path fill-rule="evenodd" clip-rule="evenodd" d="M26.1772 11.0231C26.3256 10.5286 26.1772 10.1652 25.4714 10.1652H23.1375C22.5441 10.1652 22.2707 10.4791 22.1223 10.8254C22.1223 10.8254 20.9354 13.7182 19.254 15.5973C18.71 16.1413 18.4628 16.3141 18.166 16.3141C18.0177 16.3141 17.803 16.1413 17.803 15.6468V11.0231C17.803 10.4296 17.6307 10.1652 17.1361 10.1652H13.4686C13.0979 10.1652 12.8748 10.4406 12.8748 10.7017C12.8748 11.2643 13.7153 11.394 13.802 12.9764V16.4133C13.802 17.1668 13.666 17.3035 13.3693 17.3035C12.5781 17.3035 10.6536 14.3975 9.51202 11.0726C9.2883 10.4263 9.06391 10.1652 8.46744 10.1652H6.13356C5.46674 10.1652 5.33337 10.4791 5.33337 10.8254C5.33337 11.4435 6.12473 14.5096 9.01757 18.5645C10.9464 21.3335 13.6633 22.8348 16.1359 22.8348C17.6196 22.8348 17.803 22.5014 17.803 21.9271V19.8341C17.803 19.1673 17.9435 19.0343 18.4131 19.0343C18.7595 19.0343 19.3528 19.2073 20.7376 20.5425C22.32 22.1247 22.5807 22.8348 23.4709 22.8348H25.8048C26.4716 22.8348 26.8051 22.5014 26.6127 21.8434C26.4023 21.1876 25.6468 20.2364 24.6442 19.1085C24.1003 18.4655 23.2842 17.7731 23.0372 17.4271C22.6909 16.982 22.7898 16.7842 23.0372 16.3888C23.0372 16.3888 25.8805 12.3832 26.1772 11.0232V11.0231Z" fill="white"/>
</svg>
