<svg width="32" height="32" viewBox="0 0 32 32" fill="none" xmlns="http://www.w3.org/2000/svg">
<rect width="32" height="32" rx="16" fill="#0DC143"/>
<path d="M23.1671 8.80766C21.4518 7.04189 19.0806 6.08333 16.659 6.08333C11.5131 6.08333 7.37613 10.2707 7.42658 15.3662C7.42658 16.9806 7.88064 18.5446 8.6374 19.9572L7.32568 24.75L12.2194 23.4887C13.5815 24.2455 15.0951 24.5986 16.6086 24.5986C21.7041 24.5986 25.841 20.4113 25.841 15.3158C25.841 12.8437 24.8824 10.523 23.1671 8.80766ZM16.659 23.0347C15.2969 23.0347 13.9347 22.6815 12.7743 21.9752L12.4716 21.8239L9.5455 22.5806L10.3023 19.705L10.1005 19.4023C7.88064 15.8203 8.9401 11.0779 12.5725 8.85811C16.205 6.63829 20.8969 7.69775 23.1167 11.3302C25.3365 14.9626 24.277 19.6545 20.6446 21.8743C19.4842 22.6311 18.0716 23.0347 16.659 23.0347ZM21.0987 17.4347L20.5437 17.1824C20.5437 17.1824 19.7365 16.8293 19.232 16.577C19.1815 16.577 19.1311 16.5266 19.0806 16.5266C18.9293 16.5266 18.8284 16.577 18.7275 16.6275C18.7275 16.6275 18.677 16.6779 17.9707 17.4851C17.9203 17.586 17.8194 17.6365 17.7185 17.6365H17.668C17.6176 17.6365 17.5167 17.586 17.4662 17.5356L17.214 17.4347C16.659 17.1824 16.1545 16.8797 15.7509 16.4761C15.65 16.3752 15.4987 16.2743 15.3978 16.1734C15.0446 15.8203 14.6914 15.4167 14.4392 14.9626L14.3887 14.8617C14.3383 14.8113 14.3383 14.7608 14.2878 14.6599C14.2878 14.559 14.2878 14.4581 14.3383 14.4077C14.3383 14.4077 14.5401 14.1554 14.6914 14.0041C14.7924 13.9032 14.8428 13.7518 14.9437 13.6509C15.0446 13.4996 15.0951 13.2977 15.0446 13.1464C14.9942 12.8941 14.3887 11.532 14.2374 11.2293C14.1365 11.0779 14.0356 11.0275 13.8842 10.977H13.7329C13.632 10.977 13.4806 10.977 13.3293 10.977C13.2284 10.977 13.1275 11.0275 13.0266 11.0275L12.9761 11.0779C12.8752 11.1284 12.7743 11.2293 12.6734 11.2797C12.5725 11.3806 12.5221 11.4815 12.4212 11.5824C12.068 12.0365 11.8662 12.5914 11.8662 13.1464C11.8662 13.55 11.9671 13.9536 12.1185 14.3068L12.1689 14.4581C12.623 15.4167 13.2284 16.2743 14.0356 17.0311L14.2374 17.2329C14.3887 17.3842 14.5401 17.4851 14.641 17.6365C15.7005 18.5446 16.9113 19.2005 18.2734 19.5536C18.4248 19.6041 18.6266 19.6041 18.7779 19.6545C18.9293 19.6545 19.1311 19.6545 19.2824 19.6545C19.5347 19.6545 19.8374 19.5536 20.0392 19.4527C20.1905 19.3518 20.2914 19.3518 20.3924 19.2509L20.4933 19.15C20.5942 19.0491 20.6951 18.9986 20.796 18.8977C20.8969 18.7968 20.9978 18.6959 21.0482 18.595C21.1491 18.3932 21.1996 18.141 21.25 17.8887C21.25 17.7878 21.25 17.6365 21.25 17.5356C21.25 17.5356 21.1996 17.4851 21.0987 17.4347Z" fill="white"/>
</svg>
