<svg width="24" height="21" viewBox="-3.5 0 24 21" fill="none" xmlns="http://www.w3.org/2000/svg">
<path d="M11.8392 1.51558L12.1411 3.60606H16.2273C16.4322 3.60606 16.6288 3.68747 16.7737 3.83239C16.9186 3.9773 17 4.17385 17 4.37879C17 4.58373 16.9186 4.78027 16.7737 4.92519C16.6288 5.0701 16.4322 5.15152 16.2273 5.15152H15.435L14.5355 15.6452C14.4809 16.2839 14.4366 16.8094 14.3655 17.2339C14.2934 17.6759 14.1832 18.0715 13.9678 18.4383C13.6297 19.0144 13.127 19.4762 12.5244 19.7643C12.1411 19.9467 11.7372 20.0219 11.2901 20.0569C10.8604 20.0909 10.3339 20.0909 9.69309 20.0909H7.30691C6.66606 20.0909 6.13958 20.0909 5.70994 20.0569C5.26279 20.0219 4.85891 19.9467 4.47564 19.7643C3.873 19.4762 3.3703 19.0144 3.03218 18.4383C2.81582 18.0715 2.70764 17.6759 2.63449 17.2339C2.56339 16.8084 2.51909 16.2839 2.46448 15.6452L1.56503 5.15152H0.772727C0.567787 5.15152 0.371241 5.0701 0.226326 4.92519C0.081412 4.78027 0 4.58373 0 4.37879C0 4.17385 0.081412 3.9773 0.226326 3.83239C0.371241 3.68747 0.567787 3.60606 0.772727 3.60606H4.85891L5.16079 1.51558L5.17212 1.45273C5.35964 0.638788 6.05818 0 6.93394 0H10.0661C10.9418 0 11.6404 0.638788 11.8279 1.45273L11.8392 1.51558ZM6.41982 3.60606H10.5792L10.3154 1.77624C10.2659 1.60418 10.1402 1.54545 10.065 1.54545H6.93497C6.85976 1.54545 6.73406 1.60418 6.68461 1.77624L6.41982 3.60606ZM7.72727 8.5C7.72727 8.29506 7.64586 8.09851 7.50095 7.9536C7.35603 7.80869 7.15949 7.72727 6.95455 7.72727C6.74961 7.72727 6.55306 7.80869 6.40814 7.9536C6.26323 8.09851 6.18182 8.29506 6.18182 8.5V13.6515C6.18182 13.8565 6.26323 14.053 6.40814 14.1979C6.55306 14.3428 6.74961 14.4242 6.95455 14.4242C7.15949 14.4242 7.35603 14.3428 7.50095 14.1979C7.64586 14.053 7.72727 13.8565 7.72727 13.6515V8.5ZM10.8182 8.5C10.8182 8.29506 10.7368 8.09851 10.5919 7.9536C10.4469 7.80869 10.2504 7.72727 10.0455 7.72727C9.84051 7.72727 9.64397 7.80869 9.49905 7.9536C9.35414 8.09851 9.27273 8.29506 9.27273 8.5V13.6515C9.27273 13.8565 9.35414 14.053 9.49905 14.1979C9.64397 14.3428 9.84051 14.4242 10.0455 14.4242C10.2504 14.4242 10.4469 14.3428 10.5919 14.1979C10.7368 14.053 10.8182 13.8565 10.8182 13.6515V8.5Z" fill="#FF1616"/>
</svg>
